<?xml version="1.0" standalone="no"?>
<!DOCTYPE svg PUBLIC "-//W3C//DTD SVG 20010904//EN"
 "http://www.w3.org/TR/2001/REC-SVG-20010904/DTD/svg10.dtd">
<svg version="1.0" xmlns="http://www.w3.org/2000/svg"
 viewBox="0 0 900.000000 369.000000"
 preserveAspectRatio="xMidYMid meet">
<metadata>
Created by potrace 1.10, written by Peter Selinger 2001-2011
</metadata>
<g transform="translate(0.000000,369.000000) scale(0.100000,-0.100000)"
fill="#ffffff" stroke="none">
<path d="M2579 2089 c-6 -3 -8 -86 -7 -200 l3 -194 139 0 138 0 34 39 c44 51
46 101 7 153 -22 29 -25 38 -15 54 16 25 15 54 -2 87 -28 54 -42 60 -169 64
-65 2 -123 1 -128 -3z m226 -93 c17 -23 7 -55 -19 -62 -12 -3 -47 -4 -76 -2
-59 3 -68 14 -55 65 6 24 8 25 72 21 47 -3 69 -9 78 -22z m33 -148 c17 -17 15
-44 -4 -62 -11 -12 -36 -16 -94 -16 -71 0 -79 2 -85 21 -4 11 -4 31 -1 45 6
23 10 24 89 24 51 0 88 -5 95 -12z"/>
<path d="M2965 2087 c-3 -6 -4 -98 -2 -202 l3 -190 162 -3 c178 -3 183 -1 165
55 l-10 28 -116 0 c-64 0 -120 5 -125 10 -5 6 -6 72 -1 155 5 106 4 147 -4
152 -19 12 -67 9 -72 -5z"/>
<path d="M3435 2093 c-34 -5 -115 -67 -115 -87 0 -8 -7 -19 -15 -26 -22 -18
-20 -130 3 -174 35 -64 80 -100 141 -111 121 -22 212 36 236 149 l6 30 24 -30
c13 -16 24 -36 25 -45 0 -26 79 -99 107 -99 13 0 33 -4 43 -10 24 -13 105 7
144 35 24 18 28 28 30 80 4 77 -6 105 -38 105 -33 0 -44 -17 -48 -73 -2 -40
-8 -51 -30 -65 -25 -15 -29 -15 -65 4 -64 32 -83 58 -83 115 0 61 24 97 78
116 32 12 44 11 89 -4 50 -16 53 -16 73 2 53 48 -8 89 -132 88 -58 -1 -85 -5
-93 -15 -5 -8 -17 -17 -25 -20 -9 -3 -24 -23 -35 -44 -47 -93 -75 -114 -75
-58 0 24 -35 85 -54 93 -5 2 -16 11 -26 21 -19 19 -110 32 -165 23z m106 -87
c47 -20 79 -66 79 -115 0 -22 -5 -43 -11 -46 -5 -4 -14 -18 -19 -31 -5 -13
-17 -24 -25 -24 -9 0 -27 -7 -41 -16 -23 -16 -27 -15 -67 2 -67 30 -79 47 -79
116 0 66 14 90 67 113 40 18 56 18 96 1z"/>
<path d="M4109 2090 c-4 -3 -7 -93 -5 -200 4 -211 6 -220 59 -206 26 6 27 8
27 86 l0 80 91 0 90 0 -3 43 -3 42 -82 0 c-91 0 -109 9 -99 50 l7 26 115 -2
c97 -1 118 1 134 16 22 20 27 64 8 66 -49 4 -331 3 -339 -1z"/>
<path d="M4589 2093 c-33 -4 -55 -19 -111 -81 -10 -10 -18 -24 -18 -31 0 -7
-7 -19 -15 -27 -9 -10 -15 -34 -15 -63 0 -31 5 -53 15 -61 8 -7 15 -20 15 -30
0 -24 78 -100 103 -100 11 0 36 -5 54 -12 27 -10 38 -10 53 0 11 7 30 12 42
12 24 0 108 67 108 87 0 6 7 24 15 39 19 37 19 101 0 138 -8 15 -15 34 -15 40
0 7 -14 23 -30 36 -17 14 -36 30 -43 36 -15 13 -106 23 -158 17z m91 -86 c65
-23 80 -44 80 -112 0 -66 -12 -83 -82 -119 -34 -17 -38 -17 -59 -2 -13 9 -32
16 -41 16 -10 0 -23 11 -28 24 -5 13 -14 27 -19 31 -6 3 -11 26 -11 50 0 24 5
47 11 50 5 4 14 18 19 31 6 16 18 24 32 24 13 0 30 5 38 10 19 12 18 12 60 -3z"/>
<path d="M4885 1895 l0 -195 43 0 42 0 0 45 0 45 43 0 c44 0 65 -17 77 -65 5
-17 16 -21 63 -23 61 -3 69 5 40 37 -52 57 -53 63 -17 96 22 21 25 32 27 102
2 76 1 80 -32 116 l-34 37 -126 0 -126 0 0 -195z m185 105 c43 0 47 -2 58 -33
9 -26 9 -39 0 -59 -11 -23 -19 -26 -78 -30 -36 -3 -70 -1 -76 3 -12 10 -12 98
0 118 5 7 17 10 30 7 11 -3 41 -6 66 -6z"/>
<path d="M5243 1895 l-1 -195 45 0 45 0 -7 120 -7 120 27 0 c24 0 26 -3 21
-24 -4 -15 -1 -28 6 -33 7 -4 23 -29 35 -54 13 -25 31 -53 41 -62 17 -16 20
-15 40 13 12 16 22 35 22 43 0 7 5 18 11 24 14 14 36 52 45 76 3 9 15 17 25
17 11 0 19 7 19 15 0 8 4 15 8 15 18 0 21 -13 8 -34 -12 -18 -41 -224 -34
-232 2 -1 23 -4 47 -5 l43 -4 0 195 0 195 -51 3 c-40 2 -54 -1 -70 -17 -12
-12 -21 -27 -21 -35 0 -8 -4 -17 -9 -21 -13 -7 -41 -64 -41 -82 0 -7 -7 -16
-15 -19 -17 -7 -54 32 -55 57 0 8 -5 20 -11 26 -14 14 -36 52 -45 76 -5 13
-18 17 -63 17 l-56 0 -2 -195z m107 95 c0 -5 -7 -10 -17 -12 -9 -2 -24 -24
-34 -53 l-17 -50 -1 61 c-1 33 1 63 4 66 8 7 65 -3 65 -12z"/>
<path d="M5988 2063 l-3 -28 -130 -5 -130 -5 -3 -29 c-2 -15 -1 -39 2 -52 6
-23 11 -24 85 -24 53 0 82 -4 90 -13 20 -25 -9 -37 -91 -37 -73 0 -78 -1 -84
-24 -3 -13 -4 -37 -2 -52 l3 -29 130 -5 c120 -5 130 -6 133 -25 6 -39 12 -49
23 -38 6 6 10 82 10 199 0 160 -2 189 -15 192 -10 2 -16 -6 -18 -25z m-10
-165 l-3 -93 -107 -3 c-103 -3 -108 -2 -108 18 0 18 6 20 80 20 70 0 81 2 90
21 16 29 3 76 -23 83 -12 3 -50 6 -84 6 -56 0 -63 2 -63 20 0 19 7 20 110 20
l111 0 -3 -92z"/>
</g>
</svg>
